<?xml version="1.0" standalone="no"?><!-- Created with ZXing.Net (http://zxingnet.codeplex.com/) --><!DOCTYPE svg PUBLIC "-//W3C//DTD SVG 1.1//EN" "http://www.w3.org/Graphics/SVG/1.1/DTD/svg11.dtd"><svg xmlns="http://www.w3.org/2000/svg" version="1.2" baseProfile="tiny" shape-rendering="crispEdges" viewBox="0 0 1024 1024" viewport-fill="rgb(255,255,255)" viewport-fill-opacity="1" fill="rgb(0,0,0)" fill-opacity="1" style="background-color:rgb(255,255,255);background-color:rgba(255, 255, 255, 1);"><rect x="68" y="68" width="24" height="168"/><rect x="68" y="284" width="24" height="48"/><rect x="68" y="356" width="24" height="24"/><rect x="68" y="476" width="24" height="96"/><rect x="68" y="668" width="24" height="96"/><rect x="68" y="788" width="24" height="168"/><rect x="92" y="68" width="144" height="24"/><rect x="92" y="212" width="144" height="24"/><rect x="92" y="404" width="24" height="72"/><rect x="92" y="524" width="24" height="96"/><rect x="92" y="668" width="24" height="48"/><rect x="92" y="788" width="144" height="24"/><rect x="92" y="932" width="144" height="24"/><rect x="116" y="116" width="72" height="72"/><rect x="116" y="308" width="24" height="24"/><rect x="116" y="356" width="48" height="48"/><rect x="116" y="428" width="24" height="48"/><rect x="116" y="500" width="24" height="24"/><rect x="116" y="548" width="24" height="48"/><rect x="116" y="620" width="24" height="24"/><rect x="116" y="836" width="72" height="72"/><rect x="140" y="260" width="48" height="24"/><rect x="140" y="332" width="24" height="96"/><rect x="140" y="452" width="24" height="48"/><rect x="140" y="524" width="48" height="24"/><rect x="140" y="692" width="24" height="72"/><rect x="164" y="284" width="24" height="72"/><rect x="164" y="452" width="72" height="24"/><rect x="164" y="548" width="96" height="24"/><rect x="164" y="620" width="24" height="48"/><rect x="164" y="692" width="72" height="24"/><rect x="188" y="332" width="24" height="24"/><rect x="188" y="404" width="72" height="24"/><rect x="188" y="476" width="24" height="48"/><rect x="188" y="596" width="48" height="24"/><rect x="188" y="740" width="72" height="24"/><rect x="212" y="92" width="24" height="144"/><rect x="212" y="260" width="48" height="24"/><rect x="212" y="308" width="24" height="24"/><rect x="212" y="356" width="24" height="24"/><rect x="212" y="500" width="48" height="24"/><rect x="212" y="644" width="24" height="24"/><rect x="212" y="812" width="24" height="144"/><rect x="236" y="332" width="72" height="24"/><rect x="236" y="380" width="24" height="72"/><rect x="236" y="476" width="24" height="120"/><rect x="236" y="620" width="96" height="24"/><rect x="236" y="716" width="24" height="48"/><rect x="260" y="116" width="24" height="48"/><rect x="260" y="212" width="24" height="24"/><rect x="260" y="356" width="24" height="48"/><rect x="260" y="524" width="48" height="24"/><rect x="260" y="572" width="48" height="24"/><rect x="260" y="644" width="72" height="24"/><rect x="260" y="716" width="24" height="24"/><rect x="260" y="764" width="48" height="48"/><rect x="260" y="836" width="48" height="48"/><rect x="284" y="68" width="24" height="72"/><rect x="284" y="380" width="24" height="72"/><rect x="284" y="548" width="24" height="168"/><rect x="284" y="884" width="72" height="24"/><rect x="284" y="932" width="24" height="24"/><rect x="308" y="140" width="24" height="96"/><rect x="308" y="260" width="96" height="48"/><rect x="308" y="356" width="24" height="72"/><rect x="308" y="452" width="24" height="72"/><rect x="308" y="548" width="96" height="24"/><rect x="308" y="596" width="24" height="72"/><rect x="308" y="716" width="24" height="48"/><rect x="308" y="788" width="24" height="24"/><rect x="332" y="116" width="24" height="48"/><rect x="332" y="188" width="24" height="24"/><rect x="332" y="308" width="48" height="48"/><rect x="332" y="404" width="120" height="24"/><rect x="332" y="452" width="48" height="48"/><rect x="332" y="524" width="24" height="48"/><rect x="332" y="740" width="120" height="24"/><rect x="332" y="836" width="24" height="120"/><rect x="356" y="92" width="24" height="48"/><rect x="356" y="164" width="24" height="24"/><rect x="356" y="212" width="24" height="168"/><rect x="356" y="428" width="24" height="72"/><rect x="356" y="764" width="24" height="24"/><rect x="356" y="812" width="48" height="24"/><rect x="380" y="68" width="24" height="48"/><rect x="380" y="188" width="24" height="24"/><rect x="380" y="236" width="24" height="72"/><rect x="380" y="332" width="24" height="120"/><rect x="380" y="692" width="96" height="24"/><rect x="380" y="788" width="24" height="144"/><rect x="404" y="92" width="24" height="96"/><rect x="404" y="212" width="24" height="24"/><rect x="404" y="260" width="24" height="24"/><rect x="404" y="332" width="48" height="24"/><rect x="404" y="452" width="24" height="96"/><rect x="404" y="572" width="24" height="48"/><rect x="404" y="716" width="24" height="72"/><rect x="404" y="860" width="24" height="72"/><rect x="428" y="68" width="24" height="48"/><rect x="428" y="140" width="24" height="72"/><rect x="428" y="308" width="24" height="168"/><rect x="428" y="524" width="24" height="48"/><rect x="428" y="596" width="72" height="24"/><rect x="428" y="644" width="24" height="72"/><rect x="428" y="812" width="24" height="24"/><rect x="428" y="860" width="24" height="24"/><rect x="428" y="932" width="72" height="24"/><rect x="452" y="68" width="24" height="24"/><rect x="452" y="116" width="24" height="24"/><rect x="452" y="212" width="24" height="48"/><rect x="452" y="308" width="24" height="24"/><rect x="452" y="356" width="48" height="24"/><rect x="452" y="428" width="24" height="24"/><rect x="452" y="500" width="48" height="24"/><rect x="452" y="548" width="24" height="24"/><rect x="452" y="668" width="24" height="72"/><rect x="452" y="788" width="72" height="24"/><rect x="452" y="836" width="24" height="24"/><rect x="452" y="884" width="24" height="72"/><rect x="476" y="92" width="48" height="24"/><rect x="476" y="140" width="24" height="24"/><rect x="476" y="236" width="24" height="48"/><rect x="476" y="380" width="48" height="24"/><rect x="476" y="452" width="24" height="96"/><rect x="476" y="620" width="48" height="24"/><rect x="476" y="764" width="48" height="48"/><rect x="476" y="884" width="48" height="24"/><rect x="500" y="68" width="24" height="48"/><rect x="500" y="212" width="24" height="24"/><rect x="500" y="260" width="24" height="72"/><rect x="500" y="452" width="24" height="48"/><rect x="500" y="572" width="48" height="24"/><rect x="500" y="692" width="24" height="24"/><rect x="500" y="812" width="24" height="24"/><rect x="500" y="908" width="96" height="24"/><rect x="524" y="68" width="24" height="24"/><rect x="524" y="116" width="120" height="24"/><rect x="524" y="188" width="120" height="24"/><rect x="524" y="404" width="48" height="48"/><rect x="524" y="476" width="48" height="24"/><rect x="524" y="548" width="24" height="72"/><rect x="524" y="668" width="48" height="24"/><rect x="524" y="740" width="24" height="24"/><rect x="548" y="164" width="24" height="144"/><rect x="548" y="332" width="48" height="48"/><rect x="548" y="452" width="24" height="72"/><rect x="548" y="620" width="24" height="24"/><rect x="548" y="716" width="48" height="24"/><rect x="548" y="788" width="24" height="144"/><rect x="572" y="92" width="24" height="120"/><rect x="572" y="236" width="24" height="144"/><rect x="572" y="404" width="24" height="24"/><rect x="572" y="500" width="72" height="24"/><rect x="572" y="548" width="24" height="48"/><rect x="572" y="740" width="24" height="24"/><rect x="572" y="788" width="48" height="96"/><rect x="596" y="68" width="48" height="24"/><rect x="596" y="164" width="24" height="72"/><rect x="596" y="284" width="24" height="24"/><rect x="596" y="332" width="24" height="24"/><rect x="596" y="476" width="24" height="48"/><rect x="596" y="572" width="24" height="48"/><rect x="596" y="644" width="24" height="48"/><rect x="596" y="764" width="24" height="144"/><rect x="596" y="932" width="96" height="24"/><rect x="620" y="140" width="72" height="24"/><rect x="620" y="308" width="72" height="24"/><rect x="620" y="380" width="48" height="48"/><rect x="620" y="452" width="24" height="24"/><rect x="620" y="524" width="72" height="24"/><rect x="620" y="620" width="24" height="48"/><rect x="620" y="692" width="24" height="48"/><rect x="620" y="764" width="24" height="48"/><rect x="620" y="836" width="24" height="24"/><rect x="620" y="884" width="24" height="72"/><rect x="644" y="212" width="24" height="48"/><rect x="644" y="284" width="24" height="144"/><rect x="644" y="476" width="48" height="24"/><rect x="644" y="644" width="48" height="24"/><rect x="644" y="692" width="48" height="24"/><rect x="644" y="740" width="48" height="24"/><rect x="644" y="860" width="24" height="24"/><rect x="644" y="908" width="24" height="48"/><rect x="668" y="68" width="24" height="96"/><rect x="668" y="236" width="24" height="96"/><rect x="668" y="452" width="24" height="96"/><rect x="668" y="572" width="24" height="144"/><rect x="668" y="764" width="24" height="72"/><rect x="692" y="68" width="24" height="24"/><rect x="692" y="164" width="24" height="24"/><rect x="692" y="212" width="24" height="24"/><rect x="692" y="332" width="48" height="24"/><rect x="692" y="380" width="48" height="72"/><rect x="692" y="500" width="72" height="24"/><rect x="692" y="548" width="96" height="48"/><rect x="692" y="668" width="24" height="24"/><rect x="692" y="836" width="24" height="96"/><rect x="716" y="116" width="24" height="24"/><rect x="716" y="236" width="48" height="24"/><rect x="716" y="476" width="24" height="168"/><rect x="716" y="692" width="24" height="24"/><rect x="716" y="740" width="168" height="24"/><rect x="716" y="836" width="48" height="48"/><rect x="716" y="908" width="24" height="24"/><rect x="740" y="92" width="24" height="24"/><rect x="740" y="140" width="24" height="24"/><rect x="740" y="212" width="24" height="72"/><rect x="740" y="380" width="48" height="24"/><rect x="740" y="524" width="48" height="72"/><rect x="740" y="620" width="48" height="24"/><rect x="740" y="716" width="24" height="168"/><rect x="740" y="932" width="48" height="24"/><rect x="764" y="284" width="48" height="72"/><rect x="764" y="404" width="48" height="24"/><rect x="764" y="452" width="24" height="48"/><rect x="764" y="716" width="24" height="48"/><rect x="764" y="836" width="96" height="24"/><rect x="788" y="68" width="24" height="168"/><rect x="788" y="356" width="48" height="24"/><rect x="788" y="428" width="48" height="48"/><rect x="788" y="548" width="24" height="24"/><rect x="788" y="668" width="24" height="48"/><rect x="788" y="788" width="24" height="24"/><rect x="788" y="860" width="24" height="24"/><rect x="812" y="68" width="144" height="24"/><rect x="812" y="212" width="144" height="24"/><rect x="812" y="308" width="96" height="24"/><rect x="812" y="380" width="48" height="24"/><rect x="812" y="476" width="24" height="48"/><rect x="812" y="572" width="48" height="24"/><rect x="812" y="620" width="24" height="48"/><rect x="812" y="692" width="24" height="72"/><rect x="812" y="884" width="48" height="48"/><rect x="836" y="116" width="72" height="72"/><rect x="836" y="284" width="72" height="48"/><rect x="836" y="548" width="24" height="72"/><rect x="836" y="644" width="48" height="24"/><rect x="836" y="692" width="24" height="24"/><rect x="836" y="764" width="24" height="96"/><rect x="860" y="260" width="48" height="120"/><rect x="860" y="404" width="72" height="48"/><rect x="860" y="476" width="24" height="24"/><rect x="860" y="524" width="24" height="24"/><rect x="860" y="620" width="24" height="48"/><rect x="860" y="764" width="24" height="72"/><rect x="860" y="860" width="48" height="24"/><rect x="860" y="908" width="24" height="48"/><rect x="884" y="380" width="24" height="96"/><rect x="884" y="572" width="24" height="72"/><rect x="884" y="716" width="48" height="24"/><rect x="884" y="764" width="24" height="48"/><rect x="884" y="908" width="72" height="24"/><rect x="908" y="332" width="24" height="24"/><rect x="908" y="452" width="24" height="48"/><rect x="908" y="524" width="24" height="24"/><rect x="908" y="572" width="48" height="24"/><rect x="908" y="644" width="24" height="24"/><rect x="908" y="764" width="24" height="24"/><rect x="908" y="812" width="24" height="24"/><rect x="908" y="884" width="48" height="48"/><rect x="932" y="92" width="24" height="144"/><rect x="932" y="308" width="24" height="24"/><rect x="932" y="404" width="24" height="24"/><rect x="932" y="452" width="24" height="24"/><rect x="932" y="500" width="24" height="24"/><rect x="932" y="548" width="24" height="72"/><rect x="932" y="692" width="24" height="24"/><rect x="932" y="788" width="24" height="24"/><rect x="932" y="836" width="24" height="24"/><rect x="932" y="932" width="24" height="24"/></svg>